<?xml version="1.0" standalone="no"?>
<!DOCTYPE svg PUBLIC "-//W3C//DTD SVG 20010904//EN"
 "http://www.w3.org/TR/2001/REC-SVG-20010904/DTD/svg10.dtd">
<svg version="1.0" xmlns="http://www.w3.org/2000/svg"
 width="1600.000000pt" height="1689.000000pt" viewBox="0 0 1600.000000 1689.000000"
 preserveAspectRatio="xMidYMid meet">

<g transform="translate(0.000000,1689.000000) scale(0.100000,-0.100000)"
fill="#000000" stroke="none">
<path d="M6580 13484 c-83 -13 -151 -27 -195 -41 -344 -107 -624 -391 -720
-728 -10 -33 -19 -62 -21 -64 -2 -2 -45 32 -96 74 -101 84 -201 139 -287 155
-29 5 -104 10 -166 10 l-112 0 -18 65 c-57 211 -266 358 -485 342 -339 -25
-545 -368 -405 -675 137 -299 537 -369 770 -135 28 28 60 68 70 87 l20 36 134
0 c73 0 151 -5 172 -12 31 -9 203 -140 273 -208 5 -6 -17 -37 -54 -76 -181
-194 -280 -451 -280 -728 l0 -101 -116 5 -116 5 -18 57 c-62 200 -239 328
-454 328 -136 0 -238 -42 -332 -135 -245 -243 -164 -652 156 -781 80 -32 202
-43 281 -24 122 29 245 118 301 217 l30 53 100 0 100 0 -32 -37 c-166 -199
-260 -381 -311 -603 -30 -128 -36 -350 -15 -481 42 -251 143 -462 326 -681
l32 -38 -99 0 -98 0 -33 54 c-153 256 -525 302 -737 91 -67 -67 -103 -128
-127 -214 -70 -254 73 -509 331 -587 60 -19 195 -18 262 2 82 25 127 51 192
113 68 64 102 118 127 199 l18 57 116 5 116 5 0 -101 c0 -267 88 -507 258
-702 54 -62 62 -76 51 -87 -69 -65 -229 -191 -262 -206 -35 -15 -66 -19 -183
-19 l-141 0 -25 38 c-101 151 -287 236 -462 211 -431 -61 -568 -611 -214 -859
239 -168 568 -88 697 170 21 43 42 96 46 118 l6 40 147 5 c212 7 254 24 434
174 88 73 103 82 109 67 3 -11 18 -57 33 -104 70 -229 230 -439 436 -572 594
-386 1391 -110 1616 558 53 158 54 180 54 816 -1 651 0 645 -64 691 -31 22
-32 22 -508 25 l-478 3 0 929 0 930 468 0 c532 0 517 -2 559 80 l23 43 -1 596
c-1 639 -2 663 -53 815 -127 376 -458 658 -850 721 -83 14 -234 18 -296 9z
m281 -288 c304 -65 539 -289 620 -591 21 -77 21 -97 19 -590 -1 -280 -2 -511
-4 -512 -1 -1 -188 -3 -416 -5 -414 -3 -415 -3 -460 -27 -68 -35 -127 -98
-150 -159 -19 -51 -20 -79 -20 -1022 0 -943 1 -971 20 -1022 23 -61 82 -124
150 -159 45 -24 46 -24 463 -27 l417 -3 2 -437 c2 -240 2 -468 0 -507 -9 -252
-139 -484 -349 -627 -405 -274 -964 -125 -1173 313 -51 109 -70 180 -79 309
-4 58 -13 115 -20 128 -6 12 -43 45 -81 73 -169 122 -281 293 -326 495 -23
104 -15 290 16 389 34 106 36 137 10 183 -12 21 -36 47 -53 57 -55 32 -193
173 -247 251 -62 90 -110 191 -147 310 -25 83 -27 101 -27 274 0 173 2 191 27
274 71 229 182 393 369 543 107 85 114 113 68 258 -31 100 -39 285 -15 391 44
201 152 364 322 491 40 29 78 63 85 76 6 12 15 72 19 132 20 291 177 533 432
666 154 80 363 110 528 75z m-2264 -197 c52 -25 87 -69 103 -128 31 -118 -47
-230 -175 -248 -62 -8 -144 31 -181 86 -32 49 -42 122 -24 175 37 113 168 168
277 115z m-27 -1418 c139 -71 139 -274 0 -349 -57 -30 -154 -28 -197 4 -59 44
-86 91 -91 154 -12 161 145 265 288 191z m19 -2244 c109 -72 121 -212 26 -303
-128 -123 -335 -38 -335 138 0 58 20 105 62 145 45 44 73 53 144 50 47 -2 71
-9 103 -30z m-46 -1393 c85 -29 146 -129 132 -214 -10 -61 -56 -124 -109 -150
-68 -32 -151 -26 -203 17 -133 106 -103 293 56 349 48 17 69 17 124 -2z"/>
<path d="M9115 13475 c-441 -78 -796 -427 -880 -866 -13 -72 -16 -170 -14
-677 1 -584 2 -593 23 -634 41 -80 28 -78 558 -78 l468 0 0 -930 0 -930 -468
0 c-532 0 -517 2 -559 -80 l-23 -44 0 -594 c1 -354 5 -616 11 -650 48 -272
200 -520 419 -686 91 -68 160 -99 205 -90 45 8 84 39 101 80 32 78 7 138 -78
190 -172 105 -307 288 -357 487 -25 96 -27 140 -23 674 l2 432 418 3 c416 3
417 3 462 27 68 35 127 98 150 159 19 51 20 79 20 1016 0 1082 3 1030 -73
1113 -23 25 -64 57 -92 71 l-50 27 -417 3 -418 3 -2 437 c-3 533 -2 573 23
670 76 298 314 523 623 589 96 20 274 12 376 -17 210 -60 389 -207 489 -400
56 -108 81 -198 90 -325 4 -60 13 -120 19 -132 7 -13 45 -47 85 -77 176 -131
276 -285 323 -492 23 -104 15 -290 -16 -389 -46 -145 -39 -173 68 -258 184
-147 299 -316 369 -543 25 -83 27 -101 27 -274 0 -173 -2 -191 -27 -274 -73
-237 -164 -366 -410 -581 -57 -50 -65 -81 -43 -160 40 -140 45 -175 45 -285 1
-267 -115 -493 -336 -657 -40 -29 -78 -63 -84 -75 -6 -12 -15 -71 -20 -132 -9
-128 -35 -220 -90 -326 -69 -133 -173 -244 -305 -322 -102 -61 -119 -154 -44
-230 33 -33 44 -38 84 -38 53 0 82 13 182 82 95 65 209 184 277 289 66 101 89
149 131 282 l32 99 102 -85 c180 -150 222 -167 434 -174 l147 -5 6 -40 c13
-72 81 -192 140 -247 309 -282 805 -70 805 344 0 207 -132 389 -329 455 -77
26 -211 28 -286 5 -98 -29 -214 -118 -266 -201 l-21 -34 -141 0 c-118 0 -149
4 -184 19 -33 15 -193 141 -262 206 -11 11 -7 20 25 55 186 200 292 478 282
740 l-3 95 110 -3 c61 -2 115 -5 121 -7 6 -2 14 -18 18 -37 18 -95 119 -230
214 -285 70 -41 155 -63 246 -63 137 0 238 42 333 136 102 101 151 229 140
369 -7 95 -29 161 -79 235 -189 284 -626 275 -800 -16 l-33 -54 -98 0 -99 0
32 38 c226 269 326 519 338 839 12 345 -94 634 -338 926 l-32 37 100 0 100 0
30 -53 c56 -99 179 -188 301 -217 33 -8 86 -11 135 -8 346 22 549 386 390 700
-15 29 -54 80 -88 113 -94 93 -196 135 -332 135 -215 0 -392 -128 -454 -328
l-18 -57 -116 -5 -116 -5 0 101 c0 282 -96 526 -290 737 -30 33 -49 62 -44 66
5 5 29 26 55 47 25 22 71 62 103 89 87 75 116 84 281 84 l140 1 20 -36 c33
-62 122 -142 199 -179 333 -160 713 99 683 466 -28 340 -390 539 -698 384
-105 -54 -203 -175 -234 -290 l-17 -63 -147 -4 c-203 -7 -261 -30 -429 -171
-45 -38 -84 -68 -86 -66 -2 2 -11 31 -21 64 -105 370 -425 667 -810 751 -99
22 -311 27 -410 9z m2460 -474 c152 -68 152 -287 2 -357 -85 -39 -157 -27
-223 40 -157 156 20 409 221 317z m54 -1429 c64 -39 94 -98 89 -179 -3 -51 -9
-69 -34 -99 -50 -62 -78 -78 -147 -82 -51 -3 -70 1 -107 20 -120 64 -142 217
-45 313 69 70 159 80 244 27z m-2 -2228 c15 -11 40 -37 57 -58 43 -52 48 -141
14 -206 -69 -128 -244 -140 -334 -23 -73 95 -42 233 66 291 57 30 154 28 197
-4z m3 -1422 c117 -71 121 -234 7 -326 -53 -43 -142 -48 -207 -14 -65 35 -105
103 -104 177 2 160 165 248 304 163z"/>
<path d="M7611 10882 c-42 -22 -38 -14 -181 -342 -67 -151 -164 -374 -217
-494 -57 -128 -97 -233 -97 -251 0 -41 25 -80 66 -101 26 -13 38 -14 69 -5 52
16 75 50 144 214 l58 137 205 -2 205 -3 64 -145 c78 -177 97 -200 168 -200 43
0 56 4 77 28 53 55 58 40 -182 589 -122 279 -229 520 -238 535 -16 27 -66 58
-94 58 -7 0 -28 -8 -47 -18z m101 -494 c26 -61 48 -113 48 -115 0 -2 -45 -3
-101 -3 -92 0 -101 2 -95 18 29 77 91 221 95 217 2 -3 26 -55 53 -117z"/>
<path d="M8303 10870 c-34 -14 -56 -56 -55 -106 1 -82 45 -114 160 -114 l52 0
0 -369 0 -369 -79 -3 c-60 -3 -84 -9 -100 -23 -49 -45 -46 -149 7 -184 38 -25
480 -32 536 -8 67 28 83 123 31 184 -20 23 -32 27 -99 30 l-76 4 0 368 0 367
70 5 c85 6 116 25 130 79 13 47 1 96 -31 125 -19 17 -43 19 -273 21 -138 1
-261 -2 -273 -7z"/>
<path d="M5938 4153 c-13 -3 -68 -99 -68 -119 0 -3 -11 -29 -24 -57 -13 -29
-83 -195 -156 -370 -93 -225 -130 -325 -126 -342 4 -14 18 -27 36 -33 43 -15
70 13 111 116 l33 82 217 0 217 0 12 -30 c7 -16 15 -28 19 -26 3 2 7 -8 7 -22
3 -41 31 -100 58 -117 19 -13 28 -14 50 -4 50 23 46 42 -80 342 -169 402 -228
540 -239 558 -11 19 -42 29 -67 22z m116 -417 l83 -206 -173 0 c-96 0 -174 3
-174 7 0 5 112 283 158 393 8 19 17 30 19 23 2 -6 41 -104 87 -217z m191 -311
c-20 -21 -39 -35 -42 -31 -3 3 11 21 32 41 50 45 57 38 10 -10z"/>
<path d="M7229 4141 l-24 -19 0 -289 c0 -158 3 -311 7 -339 11 -97 81 -195
171 -239 65 -31 207 -47 207 -23 0 8 -9 23 -20 33 -11 10 -22 25 -25 34 -3 10
-25 21 -56 28 -104 25 -159 94 -167 207 -4 59 -1 79 18 119 58 122 198 160
313 84 52 -36 84 -89 94 -163 4 -35 15 -54 50 -89 24 -25 46 -45 48 -45 15 0
1 57 -20 82 -37 44 -29 95 16 110 9 3 9 12 0 38 -17 54 -50 102 -63 94 -6 -4
-8 -3 -5 3 9 15 -37 58 -89 84 -102 49 -235 31 -319 -43 l-45 -40 0 181 0 180
-30 16 c-36 19 -33 19 -61 -4z m39 -672 c2 -23 2 -23 -9 -4 -7 11 -18 24 -26
28 -7 4 -13 13 -13 19 0 21 45 -20 48 -43z"/>
<path d="M6515 4123 c-29 -29 -36 -61 -20 -92 25 -50 91 -57 124 -15 28 36 26
68 -4 99 -30 29 -75 33 -100 8z"/>
<path d="M9415 4115 c-50 -49 -20 -125 48 -125 41 0 77 35 77 74 0 34 -41 76
-75 76 -14 0 -37 -11 -50 -25z"/>
<path d="M8079 3866 c-24 -12 -40 -56 -20 -56 6 0 11 -18 11 -40 0 -22 -4 -40
-10 -40 -5 0 -10 -7 -10 -15 0 -20 19 -19 41 1 11 10 25 14 35 10 16 -6 15 -9
-7 -32 -14 -14 -35 -26 -47 -27 l-22 -1 2 -211 3 -210 27 -13 c20 -9 32 -10
52 -1 l25 12 3 218 c3 203 4 219 24 246 35 46 79 66 161 71 l75 5 -48 43 c-26
24 -42 44 -34 44 7 0 35 -22 62 -50 52 -54 71 -61 88 -30 27 51 -24 90 -120
90 -66 0 -115 -17 -166 -55 -41 -32 -44 -31 -44 4 0 37 -43 56 -81 37z"/>
<path d="M8781 3865 c-74 -21 -140 -71 -183 -140 -78 -124 -55 -322 48 -419
65 -61 117 -81 214 -81 95 0 124 11 191 72 l39 35 0 -41 c0 -32 5 -44 25 -57
21 -14 30 -14 55 -4 39 16 44 44 37 238 -5 156 -21 240 -46 235 -5 -2 -8 4 -5
11 9 22 -71 102 -131 131 -67 33 -168 41 -244 20z m-71 -59 c0 -2 -7 -7 -16
-10 -8 -3 -12 -2 -9 4 6 10 25 14 25 6z m268 -55 c71 -36 112 -111 112 -202 0
-137 -80 -222 -210 -223 -52 0 -73 5 -108 26 -67 39 -112 120 -112 200 0 71
56 168 115 201 58 31 140 30 203 -2z"/>
<path d="M9439 3866 c-29 -14 -35 -41 -31 -152 l3 -91 49 51 c27 28 50 46 50
39 0 -7 -22 -35 -50 -62 l-50 -50 0 -175 c0 -175 0 -176 24 -192 22 -13 29
-14 53 -2 l28 13 3 299 c1 197 -1 303 -8 311 -16 19 -46 24 -71 11z"/>
<path d="M9789 3867 l-24 -13 -3 -301 -2 -302 26 -18 c24 -15 29 -15 53 -2
l26 15 6 214 c3 118 6 216 7 217 1 1 16 18 33 38 81 92 262 76 316 -28 11 -22
18 -66 21 -139 l5 -107 24 19 c13 10 40 24 60 31 l36 11 -6 77 c-3 42 -15 102
-27 133 -60 161 -270 220 -421 118 l-44 -29 -3 22 c-2 13 -15 31 -31 40 -22
13 -31 14 -52 4z m156 -95 c-4 -4 -13 2 -21 12 -21 30 -17 39 7 15 11 -11 18
-24 14 -27z"/>
<path d="M6516 3848 c-11 -15 -16 -44 -16 -88 l1 -65 33 35 c43 46 76 75 76
67 0 -4 -25 -32 -55 -63 l-55 -57 0 -208 0 -208 26 -20 c21 -16 30 -18 52 -10
15 6 30 16 34 22 14 21 10 591 -4 605 -21 21 -75 15 -92 -10z"/>
<path d="M7843 3584 c-3 -8 -1 -25 5 -37 10 -20 11 -18 11 16 1 39 -5 48 -16
21z"/>
<path d="M7712 3428 c-24 -44 -30 -64 -22 -72 14 -14 47 6 41 26 -13 49 8 55
32 8 17 -35 17 -35 -8 -57 -32 -28 -55 -29 -87 -3 -22 17 -30 18 -57 7 -38
-14 -39 -28 -5 -62 14 -14 22 -30 19 -35 -22 -35 97 31 147 82 40 42 68 86 56
91 -2 1 -21 19 -43 39 l-40 37 -33 -61z"/>
<path d="M10299 3338 c-54 -56 -60 -79 -27 -102 28 -20 48 -20 48 -1 0 8 11
25 25 39 19 19 25 35 25 71 0 25 -5 45 -11 45 -5 0 -32 -23 -60 -52z"/>
<path d="M0 445 l0 -445 8000 0 8000 0 0 445 0 445 -8000 0 -8000 0 0 -445z
m674 251 c131 -77 184 -264 114 -406 -26 -52 -63 -89 -76 -75 -4 3 6 41 21 83
15 42 27 95 27 118 0 81 -74 183 -156 215 -44 16 -136 14 -174 -6 -88 -46
-136 -149 -111 -239 32 -117 145 -177 241 -128 103 52 107 208 5 242 -91 30
-165 -82 -95 -145 16 -15 22 -16 35 -5 9 7 14 18 12 24 -8 20 12 56 31 56 47
0 54 -77 11 -116 -27 -24 -99 -23 -137 2 -15 10 -29 18 -32 17 -3 -1 -6 6 -7
15 -1 9 -5 40 -9 69 -5 43 -3 58 17 92 52 93 194 108 266 30 41 -45 66 -117
60 -172 -15 -120 -116 -207 -241 -207 -155 0 -256 108 -256 274 0 186 125 300
321 293 72 -2 93 -7 133 -31z m574 -181 c2 -72 -2 -146 -7 -166 -17 -56 -52
-82 -111 -83 -43 -1 -54 3 -82 32 -31 30 -33 37 -33 100 0 51 5 73 20 94 37
49 108 66 120 28 7 -23 -10 -50 -30 -50 -28 0 -58 -36 -57 -69 2 -65 61 -93
102 -49 18 20 20 35 20 153 0 73 3 135 7 139 4 4 16 6 28 4 19 -3 20 -11 23
-133z m1887 100 c0 -27 -3 -30 -30 -30 -21 0 -31 5 -33 18 -6 33 6 49 35 45
24 -3 28 -8 28 -33z m-285 -46 c0 -28 0 -28 73 -31 l72 -3 0 -30 0 -30 -72 -3
-73 -3 0 -47 c0 -87 62 -127 86 -54 15 46 29 58 50 41 21 -17 14 -82 -13 -111
-44 -49 -122 -46 -154 6 -16 26 -19 51 -19 162 0 72 3 133 6 136 3 3 14 4 25
1 13 -4 19 -14 19 -34z m-1405 -59 c0 -16 -8 -29 -24 -36 -36 -18 -41 -32 -41
-115 0 -80 -13 -108 -45 -95 -12 4 -15 24 -15 94 0 110 11 145 53 166 45 22
72 17 72 -14z m251 5 c35 -23 29 -54 -21 -109 -38 -40 -48 -46 -60 -36 -21 17
-19 42 5 68 25 26 25 32 2 32 -48 0 -72 -81 -36 -121 13 -14 31 -19 75 -19 73
0 89 -6 89 -35 0 -29 -16 -35 -96 -35 -59 0 -67 3 -101 34 -33 30 -37 39 -41
92 -3 50 0 64 20 94 13 19 35 41 48 48 29 15 82 9 116 -13z m298 -2 c35 -25
46 -63 46 -160 0 -65 -3 -85 -15 -89 -31 -12 -43 14 -44 93 -1 56 -6 81 -18
95 -22 24 -58 23 -83 -4 -39 -42 -17 -110 40 -122 27 -5 31 -10 28 -33 -2 -21
-9 -29 -28 -31 -36 -4 -89 33 -106 73 -54 131 72 257 180 178z m274 12 c19
-14 24 -14 47 1 38 25 92 9 123 -35 20 -32 22 -45 20 -130 -3 -95 -3 -96 -28
-96 -25 0 -25 2 -30 94 -4 75 -9 96 -22 105 -13 8 -23 8 -35 0 -15 -9 -19 -28
-21 -103 -2 -73 -6 -93 -19 -98 -27 -10 -40 23 -42 104 -2 79 -11 103 -40 103
-32 0 -41 -22 -41 -106 0 -85 -12 -113 -45 -100 -12 4 -15 25 -15 100 0 52 5
106 11 119 23 50 94 72 137 42z m467 -20 c0 -26 -4 -30 -30 -33 -37 -5 -45
-16 -45 -70 0 -48 -19 -100 -43 -120 -8 -7 -31 -16 -50 -19 -29 -4 -37 -2 -47
16 -14 28 2 51 36 51 31 0 44 27 44 92 0 81 36 120 105 115 26 -2 30 -6 30
-32z m393 -103 c2 -116 1 -133 -14 -139 -32 -12 -44 24 -44 131 0 125 6 148
34 144 20 -3 21 -9 24 -136z m225 123 c26 -13 31 -13 50 0 46 32 111 7 136
-53 7 -16 11 -65 9 -118 -3 -88 -3 -89 -28 -89 -24 0 -25 2 -30 90 -5 97 -11
115 -39 115 -33 0 -41 -22 -41 -112 0 -71 -3 -90 -16 -95 -27 -10 -38 16 -44
104 -4 67 -9 88 -22 97 -13 8 -23 8 -35 0 -15 -9 -19 -28 -21 -97 -3 -89 -15
-116 -48 -103 -13 5 -15 22 -12 112 3 105 3 106 36 135 36 32 63 36 105 14z
m455 -5 c19 -12 32 -28 32 -40 0 -31 -71 -111 -95 -108 -28 4 -30 33 -5 65 20
26 21 28 4 32 -21 4 -64 -42 -64 -68 0 -10 9 -30 21 -45 15 -20 30 -26 57 -26
48 0 65 -12 60 -41 -3 -21 -9 -24 -48 -27 -87 -7 -140 46 -140 138 0 62 22
103 64 124 42 21 75 20 114 -4z m373 -19 c16 -16 29 -39 29 -50 0 -17 -6 -21
-35 -21 -22 0 -38 6 -41 15 -9 24 -43 29 -65 9 -13 -12 -19 -30 -19 -60 0 -66
42 -96 77 -54 11 12 30 20 50 20 27 0 33 -4 33 -21 0 -11 -13 -34 -29 -50 -24
-23 -38 -29 -75 -29 -62 0 -94 17 -117 62 -23 46 -24 85 -3 138 20 49 53 69
117 70 41 0 53 -5 78 -29z m256 12 c72 -48 69 -199 -6 -237 -34 -18 -97 -21
-136 -6 -29 11 -64 78 -65 122 0 44 30 107 59 123 36 20 116 19 148 -2z m288
3 c17 -12 22 -12 39 0 32 22 99 18 122 -7 16 -18 20 -40 22 -135 l4 -114 -41
0 -40 0 -3 96 c-2 79 -6 99 -20 108 -14 8 -21 7 -34 -6 -14 -13 -17 -35 -16
-107 l1 -91 -40 0 -39 0 0 94 c0 107 -11 128 -55 108 -24 -11 -25 -15 -25
-107 l0 -95 -40 0 -40 0 0 130 0 131 50 -2 c27 -2 53 0 57 4 12 12 79 7 98 -7z
m8413 -81 c1 -82 0 -85 -22 -85 -21 0 -23 4 -22 70 1 60 -1 70 -16 70 -33 0
-20 29 15 32 17 2 35 2 38 1 4 -2 7 -41 7 -88z m962 -1 c0 -77 -2 -84 -20 -84
-18 0 -20 7 -20 70 0 63 -2 70 -20 70 -34 0 -23 28 13 32 17 2 35 2 40 0 4 -2
7 -41 7 -88z m780 81 c0 -8 -7 -15 -15 -15 -8 0 -15 -4 -15 -10 0 -5 7 -10 15
-10 20 0 19 -17 -1 -28 -12 -7 -15 -20 -13 -56 4 -42 2 -46 -18 -46 -21 0 -23
5 -23 50 0 28 -4 50 -10 50 -5 0 -10 7 -10 15 0 8 4 15 9 15 5 0 12 11 15 25
5 20 13 25 36 25 20 0 30 -5 30 -15z m260 -11 c0 -8 -9 -28 -21 -43 -12 -17
-21 -46 -22 -70 -2 -36 -5 -41 -26 -41 -22 0 -23 3 -17 43 4 23 14 52 22 64
20 31 18 33 -21 33 -27 0 -35 4 -35 18 0 15 8 17 60 14 44 -3 60 -8 60 -18z
m-2335 -69 c0 -74 -2 -80 -21 -83 -20 -3 -21 1 -20 83 1 80 2 85 21 83 18 -3
20 -11 20 -83z m145 65 c25 -25 27 -95 4 -128 -12 -18 -25 -22 -70 -22 l-54 0
0 85 0 85 50 0 c37 0 55 -5 70 -20z m340 -30 c0 -27 5 -50 10 -50 6 0 10 -7
10 -15 0 -8 -4 -15 -10 -15 -5 0 -10 -9 -10 -20 0 -13 -7 -20 -20 -20 -13 0
-20 7 -20 20 0 16 -7 20 -35 20 -19 0 -35 5 -35 10 0 6 16 35 35 65 23 37 41
55 55 55 17 0 20 -7 20 -50z m140 0 c0 -27 5 -50 10 -50 6 0 10 -7 10 -15 0
-8 -4 -15 -10 -15 -5 0 -10 -9 -10 -20 0 -13 -7 -20 -20 -20 -13 0 -20 7 -20
20 0 16 -7 20 -35 20 -19 0 -35 5 -35 11 0 6 15 35 33 65 23 39 38 54 55 54
20 0 22 -5 22 -50z m140 30 c14 -26 6 -51 -27 -90 l-25 -30 31 0 c21 0 31 -5
31 -15 0 -12 -13 -15 -60 -15 -72 0 -75 9 -20 68 22 24 40 47 40 52 0 18 -23
23 -35 7 -14 -19 -45 -23 -45 -6 0 6 5 19 10 30 15 28 85 27 100 -1z m150 11
c0 -6 -11 -31 -25 -57 -14 -26 -25 -60 -25 -75 0 -22 -5 -29 -20 -29 -26 0
-26 40 0 98 l19 42 -34 0 c-33 0 -51 11 -38 24 10 10 123 7 123 -3z m120 -6
c21 -26 25 -101 6 -130 -19 -29 -75 -35 -96 -10 -17 20 -17 119 0 139 16 20
74 21 90 1z m160 4 c0 -5 -11 -27 -25 -47 -15 -22 -25 -51 -25 -73 0 -28 -5
-38 -20 -42 -18 -4 -20 0 -20 35 0 24 9 55 21 74 l21 34 -41 0 c-30 0 -41 4
-41 15 0 12 14 15 65 15 39 0 65 -4 65 -11z m249 2 c22 -14 27 -106 7 -136
-23 -35 -103 -36 -90 -1 3 8 15 11 28 9 15 -3 25 1 29 11 5 12 0 16 -21 16
-34 0 -52 16 -52 48 0 41 18 62 53 62 18 0 38 -4 46 -9z m231 -1 c29 -15 45
-75 30 -111 -38 -90 -166 -59 -163 39 2 65 74 104 133 72z m160 -75 c0 -78 -2
-85 -20 -85 -18 0 -20 7 -20 85 0 78 2 85 20 85 18 0 20 -7 20 -85z m630 65
c7 -13 7 -26 1 -37 -5 -11 -5 -25 2 -40 7 -16 7 -30 -1 -48 -9 -20 -19 -25
-50 -25 -39 0 -62 14 -62 37 0 16 37 17 42 1 6 -16 38 -2 38 17 0 8 -11 20
-25 25 -32 12 -31 18 1 30 14 6 22 14 19 20 -8 13 -35 13 -35 0 0 -5 -9 -10
-20 -10 -11 0 -20 6 -20 13 0 40 90 54 110 17z m140 5 c0 -10 -11 -15 -35 -15
-41 0 -47 -17 -8 -22 17 -2 33 -13 43 -30 13 -25 13 -31 0 -55 -25 -45 -110
-42 -110 3 0 8 9 14 20 14 11 0 20 -4 20 -10 0 -16 27 -11 34 6 10 26 -12 46
-35 31 -29 -18 -42 3 -34 52 l7 41 49 0 c37 0 49 -4 49 -15z m128 2 c6 -7 11
-28 11 -47 1 -19 1 -48 2 -64 1 -33 -14 -46 -55 -46 -47 0 -89 55 -57 75 5 3
7 21 4 41 -4 25 -2 39 8 45 21 13 75 11 87 -4z m142 -6 c5 -11 10 -41 10 -66
0 -67 -13 -85 -60 -85 -48 0 -60 18 -60 89 0 59 17 81 65 81 24 0 38 -6 45
-19z m-908 -34 c4 -7 8 -36 8 -64 0 -46 -3 -53 -19 -53 -17 0 -20 8 -23 47 -4
66 -28 70 -28 4 0 -46 -2 -51 -22 -51 -21 0 -23 4 -22 53 1 28 2 57 3 63 1 16
93 17 103 1z m219 -3 c19 -23 15 -85 -7 -101 -30 -22 -72 -16 -90 12 -18 28
-13 90 9 98 27 11 75 6 88 -9z m-11056 -169 c0 -27 -3 -30 -30 -30 -21 0 -31
5 -33 18 -6 33 6 49 35 45 24 -3 28 -8 28 -33z"/>
<path d="M4330 450 c-38 -38 -14 -130 34 -130 42 0 62 102 28 133 -24 22 -38
21 -62 -3z"/>
<path d="M12870 435 c0 -46 3 -55 18 -55 26 0 42 20 42 51 0 43 -10 59 -36 59
-22 0 -24 -4 -24 -55z"/>
<path d="M13237 446 c-4 -10 -5 -21 -2 -24 9 -9 17 6 13 25 -3 17 -4 17 -11
-1z"/>
<path d="M13372 440 c-10 -17 -10 -20 3 -20 8 0 15 9 15 20 0 11 -1 20 -3 20
-1 0 -8 -9 -15 -20z"/>
<path d="M13780 435 c0 -40 4 -55 14 -55 16 0 26 21 26 55 0 34 -10 55 -26 55
-10 0 -14 -15 -14 -55z"/>
<path d="M14192 468 c2 -12 10 -23 18 -23 22 0 19 39 -3 43 -15 3 -18 -1 -15
-20z"/>
<path d="M14385 484 c-25 -25 -16 -83 16 -107 26 -19 28 -19 57 -1 17 9 33 28
37 41 6 24 -9 62 -29 75 -19 13 -64 9 -81 -8z m73 -6 c7 -7 12 -19 12 -27 0
-11 -4 -11 -19 3 -24 22 -41 13 -41 -19 0 -30 16 -41 36 -24 19 16 30 4 14
-16 -28 -34 -70 -10 -70 40 0 34 15 55 40 55 9 0 21 -5 28 -12z"/>
<path d="M15480 475 c0 -8 7 -15 15 -15 8 0 15 7 15 15 0 8 -7 15 -15 15 -8 0
-15 -7 -15 -15z"/>
<path d="M15481 416 c-14 -17 -7 -36 14 -36 22 0 29 20 13 36 -13 13 -16 13
-27 0z"/>
<path d="M15614 477 c-11 -29 0 -92 16 -92 11 0 15 12 15 49 0 49 -19 74 -31
43z"/>
<path d="M14924 426 c-7 -28 1 -46 21 -46 17 0 25 22 18 49 -7 29 -31 27 -39
-3z"/>
</g>
</svg>
