<?xml version="1.0" standalone="no"?>
<!DOCTYPE svg PUBLIC "-//W3C//DTD SVG 20010904//EN"
 "http://www.w3.org/TR/2001/REC-SVG-20010904/DTD/svg10.dtd">
<svg version="1.0" xmlns="http://www.w3.org/2000/svg"
 width="51.000000pt" height="51.000000pt" viewBox="0 0 512.000000 512.000000"
 preserveAspectRatio="xMidYMid meet">

<g transform="translate(0.000000,512.000000) scale(0.100000,-0.100000)"
fill="#ffffff" stroke="none">
<path d="M2240 4789 c-162 -93 -301 -176 -307 -186 -10 -13 -13 -94 -13 -325
l0 -308 -240 -120 -240 -120 0 106 c0 58 -4 114 -10 124 -13 24 -600 360 -629
360 -25 0 -598 -324 -623 -352 -16 -18 -18 -51 -18 -365 0 -202 4 -352 10
-362 5 -10 131 -88 280 -172 l270 -154 0 -355 0 -355 -270 -153 c-149 -85
-275 -162 -280 -172 -13 -25 -13 -695 0 -720 13 -24 600 -360 630 -360 12 0
141 68 286 151 145 83 270 149 277 147 7 -2 135 -79 285 -173 l272 -169 0
-109 c0 -59 4 -117 10 -127 13 -24 601 -360 630 -360 29 0 617 336 630 360 6
10 10 67 10 127 l0 108 276 173 c177 111 283 172 295 169 10 -3 133 -71 273
-151 141 -80 265 -146 277 -146 26 0 596 323 622 352 15 18 17 51 17 370 l0
349 -23 22 c-12 12 -138 87 -279 167 l-258 145 0 355 0 355 258 145 c141 80
267 155 279 167 l23 22 0 346 c0 210 -4 354 -10 365 -13 24 -600 360 -629 360
-25 0 -598 -324 -623 -352 -15 -17 -18 -40 -18 -129 l0 -109 -240 120 -240
120 0 306 c0 183 -4 313 -10 324 -14 25 -601 360 -631 359 -13 0 -157 -76
-319 -170z m522 -116 c103 -59 188 -110 188 -113 0 -9 -373 -220 -389 -220
-15 0 -391 212 -391 220 0 9 373 219 390 220 8 0 99 -48 202 -107z m-438 -389
l156 -89 0 -228 0 -228 -58 33 c-32 18 -122 69 -200 113 l-142 80 0 228 0 229
44 -25 c24 -13 114 -64 200 -113z m716 -91 l0 -228 -156 -89 c-86 -49 -176
-100 -200 -113 l-44 -25 0 229 1 228 197 112 c108 62 198 113 200 113 1 0 2
-102 2 -227z m-2038 -160 c103 -59 188 -110 188 -113 0 -9 -374 -220 -390
-220 -14 0 -390 212 -390 220 0 9 373 219 390 220 8 0 99 -48 202 -107z m3520
0 c103 -59 188 -110 188 -113 0 -9 -374 -220 -390 -220 -14 0 -390 212 -390
220 0 9 373 219 390 220 8 0 99 -48 202 -107z m-2279 -343 l237 -135 0 -155 0
-155 -270 -153 c-149 -85 -275 -162 -280 -172 -13 -25 -13 -695 0 -719 5 -10
131 -88 280 -172 l270 -154 0 -155 0 -155 -270 -154 c-149 -84 -275 -161 -280
-171 -6 -10 -10 -80 -10 -155 0 -75 -4 -135 -8 -133 -5 1 -113 68 -240 148
l-232 144 0 314 c0 312 0 313 -23 335 -12 12 -138 87 -279 167 l-258 145 0
355 0 355 258 145 c141 80 267 155 279 167 22 21 23 29 23 173 l0 150 278 139
c152 77 280 139 283 138 3 -1 112 -63 242 -137z m1157 0 l280 -140 0 -146 c0
-80 4 -153 10 -163 5 -10 131 -88 280 -172 l270 -154 0 -355 0 -355 -270 -153
c-149 -85 -275 -162 -280 -172 -6 -11 -10 -144 -10 -328 l0 -309 -235 -146
c-129 -81 -237 -147 -240 -147 -3 0 -5 63 -5 140 0 133 -1 142 -23 163 -12 12
-138 87 -279 167 l-257 145 -1 155 0 155 258 145 c141 80 267 155 279 167 l23
22 0 351 0 351 -23 22 c-12 12 -138 87 -279 167 l-258 145 1 155 0 155 237
136 c130 76 238 137 240 138 1 1 128 -62 282 -139z m-2836 -46 l156 -89 0
-228 0 -228 -58 33 c-33 18 -123 69 -200 113 l-142 80 0 228 0 229 44 -25 c24
-13 114 -64 200 -113z m716 -91 l0 -228 -156 -89 c-86 -49 -176 -100 -200
-113 l-44 -25 0 229 1 228 197 112 c108 62 198 112 200 113 1 0 2 -102 2 -227z
m2804 91 l156 -89 0 -228 0 -228 -58 33 c-33 18 -123 69 -200 113 l-142 80 0
228 0 229 44 -25 c24 -13 114 -64 200 -113z m716 -91 l0 -228 -156 -89 c-86
-49 -176 -100 -200 -113 l-44 -25 0 229 1 228 197 112 c108 62 198 112 200
113 1 0 2 -102 2 -227z m-2038 -560 c103 -59 188 -110 188 -113 0 -9 -373
-220 -389 -220 -15 0 -391 212 -391 220 0 9 373 219 390 220 8 0 99 -48 202
-107z m-438 -389 l156 -89 0 -228 0 -228 -58 33 c-33 18 -123 69 -200 113
l-142 80 0 228 0 229 44 -25 c24 -13 114 -64 200 -113z m716 -91 l0 -228 -156
-89 c-86 -49 -176 -100 -200 -113 l-44 -25 0 229 1 228 197 112 c108 62 198
112 200 113 1 0 2 -102 2 -227z m-2038 -560 c103 -59 188 -110 188 -113 0 -9
-373 -220 -389 -220 -15 0 -391 212 -391 220 0 9 373 219 390 220 8 0 99 -48
202 -107z m3520 0 c103 -59 188 -110 188 -113 0 -9 -373 -220 -389 -220 -15 0
-391 212 -391 220 0 9 373 219 390 220 8 0 99 -48 202 -107z m-3958 -389 l156
-89 0 -228 0 -228 -58 33 c-33 18 -123 69 -200 113 l-142 80 0 228 0 229 44
-25 c24 -13 114 -64 200 -113z m716 -91 l0 -228 -156 -89 c-86 -49 -176 -100
-200 -113 l-44 -25 0 229 1 228 197 112 c108 62 198 112 200 113 1 0 2 -102 2
-227z m2804 91 l156 -89 0 -228 0 -228 -58 33 c-33 18 -123 69 -200 113 l-142
80 0 228 0 229 44 -25 c24 -13 114 -64 200 -113z m716 -91 l0 -228 -156 -89
c-86 -49 -176 -100 -200 -113 l-44 -25 0 229 1 228 197 112 c108 62 198 112
200 113 1 0 2 -102 2 -227z m-2038 -160 c103 -59 188 -110 188 -113 0 -3 -88
-56 -195 -117 l-194 -111 -196 111 c-107 61 -195 114 -195 117 0 9 373 219
390 220 8 0 99 -48 202 -107z m-438 -389 l156 -89 0 -228 0 -228 -58 33 c-33
18 -123 69 -200 113 l-142 80 0 228 0 229 44 -25 c24 -13 114 -64 200 -113z
m716 -91 l0 -228 -156 -89 c-86 -49 -176 -100 -200 -113 l-44 -25 0 229 1 228
197 112 c108 62 198 113 200 113 1 0 2 -102 2 -227z"/>
</g>
</svg>
