<?xml version="1.0" standalone="no"?>
<!DOCTYPE svg PUBLIC "-//W3C//DTD SVG 20010904//EN"
 "http://www.w3.org/TR/2001/REC-SVG-20010904/DTD/svg10.dtd">
<svg version="1.0" xmlns="http://www.w3.org/2000/svg"
 width="51.000000pt" height="51.000000pt" viewBox="0 0 512.000000 512.000000"
 preserveAspectRatio="xMidYMid meet">

<g transform="translate(0.000000,512.000000) scale(0.100000,-0.100000)"
fill="#000000" stroke="none">
<path d="M2350 5105 c-265 -44 -491 -153 -656 -319 -135 -135 -215 -277 -263
-465 -25 -101 -27 -105 -58 -113 -19 -5 -45 -25 -64 -48 -31 -38 -35 -40 -86
-40 -88 0 -144 -41 -162 -120 -6 -25 -11 -97 -11 -161 l0 -117 -92 -4 c-63 -3
-104 -10 -128 -22 -57 -30 -109 -86 -130 -143 -20 -52 -20 -79 -20 -1086 l0
-1032 -53 -29 c-28 -16 -93 -70 -144 -121 -79 -80 -98 -105 -142 -196 -58
-119 -66 -151 -137 -575 l-49 -291 18 -55 c11 -37 31 -68 59 -96 79 -79 -126
-72 2353 -70 l2220 3 41 22 c23 12 53 36 68 54 58 69 68 136 41 289 -32 185
-34 190 -68 206 -25 12 -39 13 -60 5 -49 -19 -53 -46 -29 -189 44 -252 57
-242 -316 -242 l-269 0 -49 297 c-42 259 -51 301 -70 320 -13 13 -35 23 -49
23 -30 0 -75 -41 -75 -68 0 -15 56 -367 85 -539 l6 -33 -1494 0 -1494 0 43
263 c52 316 53 329 18 356 -34 27 -57 26 -89 -1 -25 -22 -29 -42 -75 -318 -27
-162 -49 -296 -50 -297 0 -2 -124 -3 -276 -3 l-276 0 -29 29 c-16 16 -29 37
-29 47 0 9 25 163 55 341 56 327 78 410 130 499 64 110 209 228 330 268 28 9
249 59 493 111 l444 94 66 -41 c442 -271 1037 -269 1490 6 l57 34 460 -98
c507 -107 550 -121 660 -211 104 -84 186 -213 215 -338 22 -94 83 -128 135
-76 29 28 30 37 9 119 -23 91 -95 232 -158 308 -87 105 -219 194 -347 236 -35
12 -293 70 -574 129 -480 102 -512 109 -544 138 -60 53 -71 91 -71 257 l0 148
116 112 c157 151 232 247 292 370 58 118 86 213 103 346 11 87 13 92 36 92 40
0 89 26 119 64 27 34 32 36 88 36 74 0 121 27 147 84 17 37 19 71 19 391 0
320 -2 354 -19 391 -26 57 -73 84 -146 84 -55 0 -60 2 -92 39 -18 22 -48 44
-66 50 -31 11 -34 16 -46 77 -52 284 -259 552 -536 693 -86 44 -221 92 -330
116 -100 23 -386 28 -495 10z m416 -150 c363 -62 633 -259 751 -547 26 -63 57
-178 50 -184 -2 -2 -454 -3 -1004 -2 l-1001 3 19 75 c26 103 97 241 169 327
134 162 358 282 609 327 103 19 299 19 407 1z m944 -1310 l0 -426 -447 3 -448
3 -69 33 c-127 62 -220 62 -359 0 -62 -27 -87 -32 -182 -37 -60 -3 -116 -10
-123 -14 -23 -16 -34 -58 -22 -88 18 -42 56 -52 178 -47 97 4 115 8 192 42
115 51 160 51 271 0 l84 -39 373 -3 373 -3 -6 -57 c-19 -157 -64 -287 -142
-405 -56 -86 -255 -286 -429 -431 -153 -128 -195 -146 -359 -153 -124 -6 -209
10 -283 54 -147 85 -518 446 -589 573 -55 98 -101 241 -109 339 l-7 79 103 4
c93 3 103 5 121 27 25 31 24 69 -3 98 -21 22 -26 23 -210 23 l-188 0 0 425 0
425 1140 0 1140 0 0 -425z m-2430 0 l0 -325 -40 0 -40 0 0 325 0 325 40 0 40
0 0 -325z m2650 0 l0 -325 -35 0 -35 0 0 325 0 325 35 0 35 0 0 -325z m-2880
-192 c0 -65 5 -138 11 -163 18 -78 74 -120 160 -120 48 0 54 -3 93 -44 35 -38
49 -46 92 -51 l51 -7 6 -79 c12 -148 61 -297 143 -434 50 -83 192 -244 292
-333 l72 -64 0 -159 c0 -139 -3 -165 -20 -198 -24 -47 -60 -78 -109 -91 -60
-16 -981 -210 -997 -210 -22 0 -21 1967 1 2010 22 43 60 59 138 60 l67 0 0
-117z m1214 -1522 c23 -12 80 -31 126 -42 71 -18 103 -21 210 -16 154 6 231
28 332 97 l73 48 5 -106 c7 -130 33 -196 108 -271 l49 -49 -76 -35 c-162 -74
-328 -109 -521 -109 -197 0 -337 29 -525 108 l-81 34 57 58 c72 74 96 136 105
270 l7 101 44 -34 c25 -19 64 -43 87 -54z"/>
<path d="M2808 3893 c-9 -2 -19 -10 -22 -18 -5 -15 117 -422 132 -437 15 -15
72 -13 86 3 20 21 140 429 130 439 -5 5 -21 12 -36 15 -34 9 -35 6 -88 -187
-24 -87 -46 -158 -49 -158 -3 0 -24 64 -45 143 -57 210 -59 213 -108 200z"/>
<path d="M3190 3881 c-6 -12 -10 -102 -10 -223 0 -214 3 -228 45 -228 37 0 45
20 45 107 l0 83 28 0 c25 0 32 -9 75 -96 44 -87 50 -95 74 -92 51 6 52 31 5
118 l-42 79 37 35 c37 33 38 37 38 100 0 57 -3 69 -26 91 -32 32 -81 44 -181
45 -66 0 -79 -3 -88 -19z m201 -77 c20 -24 16 -84 -6 -100 -10 -8 -40 -14 -67
-14 l-48 0 0 65 0 65 54 0 c37 0 58 -5 67 -16z"/>
</g>
</svg>
